<?xml version="1.0" encoding="UTF-8"?>
<svg width="24px" height="32px" viewBox="0 0 24 32" version="1.1" xmlns="http://www.w3.org/2000/svg" xmlns:xlink="http://www.w3.org/1999/xlink">
    <g id="Icon" fill="#df3510">
        <path d="M21,0 L3,0 C1.34375,0 0,1.34375 0,3 L0,29 C0,30.65625 1.34375,32 3,32 L21,32 C22.65625,32 24,30.65625 24,29 L24,3 C24,1.34375 22.65625,0 21,0 Z M9,2 L15,2 C15.55,2 16,2.45 16,3 C16,3.55 15.55,4 15,4 L9,4 C8.45,4 8,3.55 8,3 C8,2.45 8.45,2 9,2 Z M12,10 C14.20625,10 16,11.79375 16,14 C16,16.20625 14.20625,18 12,18 C9.79375,18 8,16.20625 8,14 C8,11.79375 9.79375,10 12,10 Z M19,24.8 C19,25.4625 18.375,26 17.6,26 L6.4,26 C5.625,26 5,25.4625 5,24.8 L5,23.6 C5,21.6125 6.88125,20 9.2,20 L9.5125,20 C10.28125,20.31875 11.11875,20.5 12,20.5 C12.88125,20.5 13.725,20.31875 14.4875,20 L14.8,20 C17.11875,20 19,21.6125 19,23.6 L19,24.8 Z" id="Icon-Shape"></path>
    </g>
</svg>