<?xml version="1.0" encoding="UTF-8"?>
<svg width="40px" height="24px" viewBox="0 0 40 24" version="1.1" xmlns="http://www.w3.org/2000/svg" xmlns:xlink="http://www.w3.org/1999/xlink">
    <g id="Icon" fill="#df3510">
        <path d="M38.89625,9.575 L21.4625,4.21875 C20.5125,3.926875 19.4875,3.926875 18.538125,4.21875 L1.10375,9.575 C-0.3675,10.026875 -0.3675,11.9725 1.10375,12.424375 L4.143125,13.358125 C3.47625,14.1825 3.06625,15.188125 3.025625,16.289375 C2.42375,16.634375 2,17.256875 2,18 C2,18.67375 2.355,19.240625 2.86625,19.603125 L1.270625,26.783125 C1.131875,27.4075 1.606875,28 2.24625,28 L5.753125,28 C6.393125,28 6.868125,27.4075 6.729375,26.783125 L5.13375,19.603125 C5.645,19.240625 6,18.67375 6,18 C6,17.276875 5.595625,16.671875 5.02125,16.320625 C5.06875,15.381875 5.54875,14.551875 6.314375,14.025625 L18.5375,17.78125 C19.10375,17.955 20.19,18.171875 21.461875,17.78125 L38.89625,12.425 C40.368125,11.9725 40.368125,10.0275 38.89625,9.575 Z M22.049375,19.693125 C20.26625,20.240625 18.746875,19.938125 17.95,19.693125 L8.88625,16.90875 L8,24 C8,26.209375 13.3725,28 20,28 C26.6275,28 32,26.209375 32,24 L31.11375,16.908125 L22.049375,19.693125 Z" id="Icon-Shape"></path>
    </g>
</svg>