<?xml version="1.0" encoding="UTF-8"?>
<svg width="36px" height="26px" viewBox="0 0 36 26" version="1.1" xmlns="http://www.w3.org/2000/svg" xmlns:xlink="http://www.w3.org/1999/xlink">
    <g id="Page-1" stroke="none" stroke-width="1" fill="none" fill-rule="evenodd">
        <g id="Resumé" transform="translate(-836.000000, -969.000000)">
            <g id="twemoji-flag-for-flag-canada" transform="translate(836.000000, 964.000000)" fill-rule="nonzero">
                <g id="Icon">
                    <path d="M4,5 C1.790861,5 0,6.790861 0,9 L0,27 C0,29.209139 1.790861,31 4,31 L10,31 L10,5 L4,5 Z M32,5 L26,5 L26,31 L32,31 C34.209139,31 36,29.209139 36,27 L36,9 C36,6.790861 34.209139,5 32,5 Z" id="Icon-Shape" fill="#D52B1E"></path>
                    <polygon id="Icon-Path" fill="#EEEEEE" points="10 5 26 5 26 31 10 31"></polygon>
                    <path d="M18.615,22.113 C19.813,22.252 20.887,22.377 22.084,22.514 L21.779,21.512 C21.733158,21.3358499 21.7954935,21.1492354 21.938,21.036 L25.417,18.202 L24.697,17.863 C24.38,17.75 24.467,17.571 24.582,17.141 L25.113,15.205 L23.092,15.632 C22.895,15.662 22.764,15.537 22.734,15.417 L22.473,14.506 L20.875,16.3 C20.648,16.588 20.188,16.588 20.331,15.924 L21.014,12.29 L20.097,12.765 C19.84,12.909 19.583,12.933 19.44,12.676 L18.175,10.31 L18.175,10.369 L18.175,10.31 L16.91,12.676 C16.766,12.933 16.509,12.909 16.252,12.765 L15.336,12.29 L16.019,15.924 C16.163,16.588 15.702,16.588 15.475,16.3 L13.877,14.507 L13.617,15.418 C13.587,15.538 13.455,15.663 13.258,15.633 L11.237,15.206 L11.768,17.142 C11.881,17.572 11.969,17.751 11.652,17.864 L10.932,18.203 L14.411,21.037 C14.549,21.144 14.619,21.337 14.569,21.513 L14.264,22.515 L17.734,22.114 C17.84,22.114 17.91,22.173 17.909,22.295 L17.695,25.999 L18.651,25.999 L18.438,22.295 C18.44,22.172 18.509,22.113 18.615,22.113 L18.615,22.113 Z" id="Icon-Path" fill="#D52B1E"></path>
                </g>
            </g>
        </g>
    </g>
</svg>