<?xml version="1.0" encoding="UTF-8"?>
<svg width="32px" height="32px" viewBox="0 0 32 32" version="1.1" xmlns="http://www.w3.org/2000/svg" xmlns:xlink="http://www.w3.org/1999/xlink">
    <g id="Icon" fill="#df3510">
        <path d="M31.57,1.193375 C31.495625,0.847625 31.153875,0.505875 30.8070625,0.431625 C28.79475,0 27.2191875,0 25.6504375,0 C19.1984375,0 15.329375,3.4501875 12.44075,8 L5.927375,8 C4.905625,8.001 3.7050625,8.7421875 3.2469375,9.65525 L0.15725,15.8310625 C0.0617597239,16.0416698 0.00834221344,16.2689065 0,16.5 C0,17.3284449 0.671930054,17.9998965 1.500375,18 L7.9885,18 L6.583875,19.4043125 C5.8735,20.114375 5.771625,21.4204375 6.583875,22.2324375 L9.765375,25.4140625 C10.462625,26.1133125 11.775125,26.2363125 12.5951875,25.4140625 L13.999875,24.00975 L13.999875,30.5 C14.0001855,31.3284205 14.671767,32 15.5001875,32 C15.7313315,31.9914355 15.9586077,31.9380287 16.169375,31.84275 L22.3399375,28.755875 C23.25425,28.2998125 23.9966875,27.099625 23.9966875,26.077125 L23.9966875,19.5498125 C28.534,16.65525 31.99875,12.774375 31.99875,6.3564375 C32.004625,4.78125 32.004625,3.2060625 31.57,1.1933125 L31.57,1.193375 Z M24.0025,10.5000001 C22.6218695,10.4996548 21.5028949,9.38021392 21.503125,7.99958344 C21.5033551,6.61895295 22.6227028,5.49988506 24.0033333,5.50000009 C25.3839638,5.50011511 26.503125,6.61936949 26.503125,8.00000009 C26.5023317,9.38062717 25.3831273,10.4995518 24.0025,10.5000001 Z" id="Icon-Shape"></path>
    </g>
</svg>