<?xml version="1.0" encoding="UTF-8"?>
<svg width="40px" height="32px" viewBox="0 0 40 32" version="1.1" xmlns="http://www.w3.org/2000/svg" xmlns:xlink="http://www.w3.org/1999/xlink">
    <g id="Icon" fill="#df3510">
        <path d="M15.939375,16.353125 C16.33,16.74375 16.963125,16.74375 17.35375,16.353125 L18.060625,15.64625 C18.45125,15.255625 18.45125,14.6225 18.060625,14.231875 L15.828125,12 L18.06,9.7675 C18.450625,9.376875 18.450625,8.74375 18.06,8.353125 L17.353125,7.64625 C16.9625,7.255625 16.329375,7.255625 15.93875,7.64625 L12.2925,11.2925 C11.901875,11.683125 11.901875,12.31625 12.2925,12.706875 L15.939375,16.353125 L15.939375,16.353125 Z M21.94,15.646875 L22.646875,16.35375 C23.0375,16.744375 23.670625,16.744375 24.06125,16.35375 L27.7075,12.7075 C28.098125,12.316875 28.098125,11.68375 27.7075,11.293125 L24.06125,7.646875 C23.670625,7.25625 23.0375,7.25625 22.646875,7.646875 L21.94,8.35375 C21.549375,8.744375 21.549375,9.3775 21.94,9.768125 L24.171875,12 L21.94,14.2325 C21.549375,14.623125 21.549375,15.25625 21.94,15.646875 L21.94,15.646875 Z M39,26 L23.84625,26 C23.8,27.238125 22.926875,28 21.8,28 L18,28 C16.831875,28 15.93625,26.908125 15.951875,26 L1,26 C0.45,26 0,26.45 0,27 L0,28 C0,30.2 1.8,32 4,32 L36,32 C38.2,32 40,30.2 40,28 L40,27 C40,26.45 39.55,26 39,26 Z M36,3 C36,1.35 34.65,0 33,0 L7,0 C5.35,0 4,1.35 4,3 L4,24 L36,24 L36,3 Z M32,20 L8,20 L8,4 L32,4 L32,20 Z" id="Icon-Shape"></path>
    </g>
</svg>