<?xml version="1.0" encoding="UTF-8"?>
<svg width="28px" height="32px" viewBox="0 0 28 32" version="1.1" xmlns="http://www.w3.org/2000/svg" xmlns:xlink="http://www.w3.org/1999/xlink">
    <g id="Icon" fill="#df3510">
        <path d="M14,16 C18.41875,16 22,12.41875 22,8 C22,3.58125 18.41875,0 14,0 C9.58125,0 6,3.58125 6,8 C6,12.41875 9.58125,16 14,16 Z M19.9875,18.0375 L17,30 L15,21.5 L17,18 L11,18 L13,21.5 L11,30 L8.0125,18.0375 C3.55625,18.25 0,21.89375 0,26.4 L0,29 C0,30.65625 1.34375,32 3,32 L25,32 C26.65625,32 28,30.65625 28,29 L28,26.4 C28,21.89375 24.44375,18.25 19.9875,18.0375 L19.9875,18.0375 Z" id="Icon-Shape"></path>
    </g>
</svg>